Patient4_TMGait_0pt4_01_right_25_GRF.mot
version=1
nRows=51
nColumns=19
inDegrees=no
endheader
time	F1x	F1y	F1z	M1x	M1y	M1z	F2x	F2y	F2z	M2x	M2y	M2z	EC1x	EC1y	EC1z	EC2x	EC2y	EC2z
32.16	2.5553	750.1515	73.9479	-245.6442	-80.9647	826.2537	9.0832	37.7992	2.8608	8.5805	-2.3667	47.3409	-0.0592	0.0182	-0.0073	-0.0462	0.0165	0.9585
32.1731	1.4382	751.4748	70.2002	-246.1582	-76.5	823.6626	6.1262	26.3826	1.8177	6.1174	-1.4772	32.9777	-0.0592	0.0182	-0.0073	-0.0462	0.0165	0.9585
32.1861	0.76909	752.4674	66.7607	-246.5699	-72.2338	820.6892	3.631	16.7809	0.95498	4.0459	-0.72996	20.9045	-0.0592	0.0182	-0.0073	-0.0462	0.0165	0.9585
32.1992	0.60678	753.124	63.8051	-246.8769	-68.3785	817.5139	1.7446	9.5245	0.30984	2.4825	-0.16317	11.7838	-0.0592	0.0182	-0.0073	-0.0462	0.0165	0.9585
32.2123	0.89992	753.4882	61.4228	-247.0897	-65.0534	814.2628	0.44336	4.557	-0.12167	1.4143	0.22529	5.5427	-0.0592	0.0182	-0.0073	-0.0462	0.0165	0.9585
32.2254	1.5477	753.5771	59.5777	-247.2088	-62.2452	810.9727	-0.36884	1.5286	-0.38177	0.76257	0.46905	1.7425	-0.0592	0.0182	-0.0073	-0.0462	0.0165	0.9585
32.2384	2.4658	753.3428	58.2226	-247.2047	-59.9099	807.5601	-0.79195	-0.045344	-0.51684	0.41788	0.60505	-0.22964	-0.0592	0.0182	-0.0073	-0.0462	0.0165	0.9585
32.2515	3.6053	752.6729	57.2825	-247.0207	-57.9633	803.8432	-0.96663	-0.66811	-0.57335	0.26349	0.68004	-0.99806	-0.0592	0.0182	-0.0073	-0.0462	0.0165	0.9585
32.2646	4.9407	751.4346	56.7211	-246.5891	-56.3578	799.6311	-0.9782	-0.80372	-0.58301	0.18761	0.71397	-1.1514	-0.0592	0.0182	-0.0073	-0.0462	0.0165	0.9585
32.2776	6.4447	749.5481	56.4872	-245.8601	-55.0403	794.8067	-0.90918	-0.81392	-0.57699	0.09937	0.73289	-1.1368	-0.0592	0.0182	-0.0073	-0.0462	0.0165	0.9585
32.2907	8.1039	747.0443	56.562	-244.8209	-53.9936	789.3728	-0.80843	-0.99674	-0.56259	-0.080249	0.74015	-1.3259	-0.0592	0.0182	-0.0073	-0.0462	0.0165	0.9585
32.3038	9.9187	744.0879	56.9162	-243.5081	-53.1921	783.4708	-0.70859	-1.5411	-0.54275	-0.40469	0.73637	-1.9537	-0.0592	0.0182	-0.0073	-0.0462	0.0165	0.9585
32.3169	11.9106	740.9626	57.5476	-242.0072	-52.6346	777.3716	-0.61948	-2.5346	-0.51184	-0.8971	0.71068	-3.1305	-0.0592	0.0182	-0.0073	-0.0462	0.0165	0.9585
32.3299	14.1043	738.0432	58.4401	-240.4463	-52.3033	771.4509	-0.53368	-3.9763	-0.45682	-1.5474	0.64124	-4.8565	-0.0592	0.0182	-0.0073	-0.0462	0.0165	0.9585
32.343	16.5292	735.7088	59.5948	-238.9673	-52.1973	766.1061	-0.44544	-5.6981	-0.35137	-2.2842	0.49425	-6.9245	-0.0592	0.0182	-0.0073	-0.0462	0.0165	0.9585
32.3561	19.1862	734.2704	60.9848	-237.7003	-52.2964	761.682	-0.30989	-7.327	-0.1691	-2.9565	0.22505	-8.8958	-0.0592	0.0182	-0.0073	-0.0462	0.0165	0.9585
32.3691	22.0413	733.8987	62.588	-236.7331	-52.5899	758.3896	-0.107	-8.2082	0.12629	-3.3033	-0.21405	-9.9847	-0.0592	0.0182	-0.0073	-0.0462	0.0165	0.9585
32.3822	25.0222	734.5362	64.3358	-236.0796	-53.031	756.2133	0.20418	-7.3705	0.56803	-2.9352	-0.86879	-9.0411	-0.0592	0.0182	-0.0073	-0.0462	0.0165	0.9585
32.3953	28.0232	735.8918	66.1486	-235.6726	-53.5731	754.9004	0.65524	-3.4708	1.1758	-1.3155	-1.763	-4.4647	-0.0592	0.0182	-0.0073	-0.0462	0.0165	0.9585
32.4084	30.9375	737.4427	67.9162	-235.3625	-54.1419	753.9554	1.2542	5.1363	1.9391	2.2143	-2.8756	5.713	-0.0592	0.0182	-0.0073	-0.0462	0.0165	0.9585
32.4214	33.6454	738.4069	69.5332	-234.908	-54.6694	752.6358	1.9828	20.2471	2.7951	8.3706	-4.1104	23.6416	-0.0592	0.0182	-0.0073	-0.0462	0.0165	0.9585
32.4345	36.0397	737.7333	70.8622	-233.977	-55.0542	749.9198	2.7674	43.5054	3.5954	17.7993	-5.2439	51.2984	-0.0592	0.0182	-0.0073	-0.0462	0.0165	0.9585
32.4476	37.9994	734.1427	71.742	-232.1612	-55.1749	744.5659	3.4579	75.8005	4.0787	30.8356	-5.8903	89.7742	-0.0592	0.0182	-0.0073	-0.0462	0.0165	0.9585
32.4606	39.4139	726.1898	71.9617	-229.0039	-54.863	735.1703	3.7663	116.4345	3.846	47.164	-5.4562	138.2907	-0.0592	0.0182	-0.0073	-0.0462	0.0165	0.9585
32.4737	40.1797	712.4407	71.2965	-224.0623	-53.9363	720.3266	3.1512	162.1081	2.3574	65.4182	-3.0999	192.9538	-0.0592	0.0182	-0.0073	-0.0462	0.0165	0.9585
32.4868	40.2325	691.8103	69.5455	-217.016	-52.2306	698.9458	0.78607	206.758	-0.81941	83.1634	1.918	246.5577	-0.0592	0.0182	-0.0073	-0.0462	0.0165	0.9585
32.4999	39.6218	663.9161	66.6338	-207.7762	-49.6692	670.583	-3.6046	245.3508	-5.2881	98.4164	9.1503	293.0593	-0.0592	0.0182	-0.0073	-0.0462	0.0165	0.9585
32.5129	38.4953	629.2523	62.6656	-196.5237	-46.31	635.639	-9.5503	277.1741	-10.3323	110.8962	17.5791	331.5056	-0.0592	0.0182	-0.0073	-0.0462	0.0165	0.9585
32.526	37.0618	588.754	57.9385	-183.5628	-42.367	594.9311	-16.0195	304.2977	-15.4796	121.4338	26.2592	364.1943	-0.0592	0.0182	-0.0073	-0.0462	0.0165	0.9585
32.5391	35.4226	543.4564	52.6959	-169.2161	-38.0292	549.4296	-21.9339	329.4896	-20.2301	131.1503	34.2252	394.2387	-0.0592	0.0182	-0.0073	-0.0462	0.0165	0.9585
32.5521	33.6018	494.4363	47.109	-153.8119	-33.439	500.1751	-26.5237	355.1218	-24.3366	141.0025	40.8945	424.3575	-0.0592	0.0182	-0.0073	-0.0462	0.0165	0.9585
32.5652	31.5131	442.8158	41.2846	-137.6876	-28.7116	448.2934	-29.3905	382.7331	-27.6568	151.6118	45.9793	456.2967	-0.0592	0.0182	-0.0073	-0.0462	0.0165	0.9585
32.5783	28.9938	389.7185	35.374	-121.1701	-24.0275	394.927	-30.6001	413.0284	-30.3882	163.2423	49.729	490.9022	-0.0592	0.0182	-0.0073	-0.0462	0.0165	0.9585
32.5914	25.8778	336.2883	29.5822	-104.5851	-19.624	341.2161	-30.3977	446.0703	-32.9368	175.8904	52.7048	528.2727	-0.0592	0.0182	-0.0073	-0.0462	0.0165	0.9585
32.6044	22.0287	283.764	24.147	-88.2859	-15.7664	288.4134	-29.2379	481.6922	-35.7872	189.4522	55.6216	568.2856	-0.0592	0.0182	-0.0073	-0.0462	0.0165	0.9585
32.6175	17.4591	233.4775	19.2749	-72.667	-12.6521	237.8367	-27.6767	519.6493	-39.2747	203.7983	59.0721	610.737	-0.0592	0.0182	-0.0073	-0.0462	0.0165	0.9585
32.6306	12.3275	186.8494	15.1025	-58.1609	-10.369	190.9116	-26.248	559.5796	-43.4979	218.7674	63.3704	655.2715	-0.0592	0.0182	-0.0073	-0.0462	0.0165	0.9585
32.6436	7.0345	145.1344	11.686	-45.1625	-8.8524	148.8632	-25.3645	600.8797	-48.3506	234.1156	68.5404	701.239	-0.0592	0.0182	-0.0073	-0.0462	0.0165	0.9585
32.6567	2.0706	109.1754	9.0004	-33.9445	-7.9266	112.5215	-25.1823	642.5678	-53.5633	249.4717	74.3284	747.4941	-0.0592	0.0182	-0.0073	-0.0462	0.0165	0.9585
32.6698	-2.1067	79.2482	6.9294	-24.6068	-7.3315	82.1543	-25.7168	683.3277	-58.852	264.3332	80.3999	792.5157	-0.0592	0.0182	-0.0073	-0.0462	0.0165	0.9585
32.6829	-5.1696	55.1212	5.3247	-17.0871	-6.8141	57.5371	-26.8296	721.5409	-63.9307	278.0923	86.3737	834.4204	-0.0592	0.0182	-0.0073	-0.0462	0.0165	0.9585
32.6959	-6.9592	36.2533	4.0323	-11.2202	-6.1677	38.1719	-28.3732	755.5296	-68.5728	290.1196	91.9316	871.3042	-0.0592	0.0182	-0.0073	-0.0462	0.0165	0.9585
32.709	-7.4377	21.9851	2.9378	-6.7998	-5.2726	23.4257	-30.1616	783.7285	-72.569	299.8447	96.7753	901.3984	-0.0592	0.0182	-0.0073	-0.0462	0.0165	0.9585
32.7221	-6.7908	11.6935	1.9831	-3.6252	-4.137	12.7208	-32.0042	804.8876	-75.8025	306.8309	100.7073	923.3114	-0.0592	0.0182	-0.0073	-0.0462	0.0165	0.9585
32.7351	-5.4414	4.7999	1.1925	-1.5088	-2.9256	5.485	-33.6856	818.2943	-78.159	310.8637	103.5288	936.2485	-0.0592	0.0182	-0.0073	-0.0462	0.0165	0.9585
32.7482	-3.9012	0.69105	0.60552	-0.25369	-1.8418	1.1389	-34.9483	823.9171	-79.5716	311.9934	105.0775	940.1621	-0.0592	0.0182	-0.0073	-0.0462	0.0165	0.9585
32.7613	-2.4726	-1.347	0.21674	0.36107	-0.98393	-1.0349	-35.5613	822.4244	-79.9907	310.5333	105.2275	935.7831	-0.0592	0.0182	-0.0073	-0.0462	0.0165	0.9585
32.7744	-1.3009	-1.9847	-0.010616	0.54428	-0.37238	-1.7428	-35.3338	815.0553	-79.4659	307.0013	103.9792	924.4726	-0.0592	0.0182	-0.0073	-0.0462	0.0165	0.9585
32.7874	-0.44347	-1.766	-0.12116	0.46607	0.012581	-1.5514	-34.1666	803.4306	-78.1147	302.0414	101.4421	908.0298	-0.0592	0.0182	-0.0073	-0.0462	0.0165	0.9585
32.8005	0.13762	-1.1196	-0.15269	0.2577	0.21696	-0.91768	-32.0682	789.3439	-76.1245	296.3458	97.8435	888.4582	-0.0592	0.0182	-0.0073	-0.0462	0.0165	0.9585
32.8136	0.46376	-0.31675	-0.14272	0.0033649	0.29064	-0.097607	-29.1399	774.6408	-73.6951	290.6096	93.4616	867.8248	-0.0592	0.0182	-0.0073	-0.0462	0.0165	0.9585
